<svg id="visual" viewBox="0 0 900 600" width="900" height="600" xmlns="http://www.w3.org/2000/svg" xmlns:xlink="http://www.w3.org/1999/xlink" version="1.1"><rect width="900" height="600" fill="#fcffdb"></rect><g><g transform="translate(539 284)"><path d="M103.3 -100.8C123.1 -83.4 121.1 -41.7 113.6 -7.5C106.1 26.7 93.1 53.3 73.2 73.1C53.3 92.8 26.7 105.6 -4.8 110.4C-36.2 115.2 -72.5 112 -90.9 92.2C-109.3 72.5 -109.8 36.2 -107.9 1.9C-106 -32.5 -101.8 -65 -83.4 -82.4C-65 -99.8 -32.5 -102.2 4.6 -106.8C41.7 -111.4 83.4 -118.3 103.3 -100.8Z" fill="none" stroke="#00c27c" stroke-width="5"></path></g><g transform="translate(168 476)"><path d="M68 -58.3C93.4 -42.6 122.9 -21.3 126.6 3.6C130.2 28.6 108 57.2 82.6 84.5C57.2 111.9 28.6 138 3.3 134.7C-22 131.4 -44 98.7 -61.9 71.3C-79.9 44 -93.9 22 -97.8 -3.9C-101.8 -29.8 -95.6 -59.6 -77.6 -75.3C-59.6 -90.9 -29.8 -92.4 -4.2 -88.2C21.3 -84 42.6 -73.9 68 -58.3Z" stroke="#00c27c" fill="none" stroke-width="5"></path></g><g transform="translate(61 94)"><path d="M51.6 -47.7C66 -37.1 76.4 -18.6 75.5 -0.9C74.6 16.7 62.4 33.5 47.9 54.4C33.5 75.4 16.7 100.5 -4.6 105.1C-26 109.8 -52 93.9 -72.8 73C-93.5 52 -108.9 26 -111 -2C-113 -30.1 -101.7 -60.2 -80.9 -70.8C-60.2 -81.4 -30.1 -72.4 -5.8 -66.7C18.6 -60.9 37.1 -58.3 51.6 -47.7Z" stroke="#00c27c" fill="none" stroke-width="5"></path></g><g transform="translate(843 500)"><path d="M44.5 -40.5C56 -32.9 62.6 -16.5 58.1 -4.5C53.6 7.5 38 15 26.5 21.4C15 27.7 7.5 33 -3.2 36.2C-13.8 39.4 -27.6 40.4 -39.1 34C-50.6 27.6 -59.8 13.8 -61.2 -1.4C-62.6 -16.6 -56.2 -33.2 -44.7 -40.8C-33.2 -48.4 -16.6 -47 -0.1 -47C16.5 -46.9 32.9 -48.2 44.5 -40.5Z" stroke="#00c27c" fill="none" stroke-width="5"></path></g><g transform="translate(894 15)"><path d="M33.1 -37.8C39.4 -26.8 38.6 -13.4 38.3 -0.3C38.1 12.9 38.3 25.7 32 33.9C25.7 42.1 12.9 45.6 -0.6 46.2C-14.1 46.8 -28.1 44.5 -37.6 36.3C-47.1 28.1 -52 14.1 -51.1 0.8C-50.3 -12.4 -43.8 -24.8 -34.3 -35.8C-24.8 -46.8 -12.4 -56.4 0.5 -56.9C13.4 -57.4 26.8 -48.8 33.1 -37.8Z" stroke="#00c27c" fill="none" stroke-width="5"></path></g></g></svg>