<svg id="visual" viewBox="0 0 900 600" width="900" height="600" xmlns="http://www.w3.org/2000/svg" xmlns:xlink="http://www.w3.org/1999/xlink" version="1.1"><rect width="900" height="600" fill="#a2cda0"></rect><g><g transform="translate(286 188)"><path d="M56.6 -21C63.3 2 51.5 28.3 32.4 41.5C13.3 54.7 -13.2 54.6 -25.9 43.5C-38.6 32.4 -37.6 10.3 -31 -12.7C-24.4 -35.7 -12.2 -59.4 6.4 -61.5C25 -63.6 50 -44 56.6 -21Z" fill="none" stroke="#00a87f" stroke-width="20"></path></g><g transform="translate(689 186)"><path d="M3.7 -0.3C4.6 1.7 5.1 4.8 3.5 6.2C2 7.7 -1.7 7.6 -4.5 5.7C-7.3 3.8 -9.1 0.1 -8.2 -1.9C-7.3 -3.8 -3.7 -4.1 -1.1 -3.7C1.4 -3.3 2.7 -2.3 3.7 -0.3Z" stroke="#00a87f" fill="none" stroke-width="20"></path></g><g transform="translate(420 495)"><path d="M27.4 -5.4C30.7 1.1 25.1 14.1 16.3 19.8C7.6 25.6 -4.5 24.2 -13.8 17.7C-23.2 11.2 -29.8 -0.3 -27.1 -6.1C-24.3 -12 -12.2 -12.1 0 -12.1C12.1 -12.1 24.1 -11.9 27.4 -5.4Z" stroke="#00a87f" fill="none" stroke-width="20"></path></g><g transform="translate(507 299)"><path d="M26.7 -8.1C30.2 2 25.5 15.3 16.7 21.4C7.8 27.4 -5.2 26.2 -13.2 20C-21.2 13.7 -24.2 2.4 -21.2 -7C-18.1 -16.5 -9.1 -24.2 1.3 -24.6C11.6 -25 23.3 -18.2 26.7 -8.1Z" stroke="#00a87f" fill="none" stroke-width="20"></path></g><g transform="translate(767 413)"><path d="M20.7 -6.6C27.4 13.7 33.6 34.3 27.8 38.6C21.9 43 3.9 31.1 -12 19C-27.9 6.8 -41.9 -5.7 -39.5 -20.1C-37.2 -34.5 -18.6 -50.8 -5.8 -48.9C7 -47.1 14.1 -27 20.7 -6.6Z" stroke="#00a87f" fill="none" stroke-width="20"></path></g><g transform="translate(111 487)"><path d="M4.3 -2.1C5.2 1.2 5.2 4.1 3 6.2C0.8 8.3 -3.6 9.6 -5.4 8.1C-7.2 6.7 -6.4 2.4 -5.1 -1.5C-3.8 -5.5 -1.9 -9.2 -0.1 -9.1C1.7 -9.1 3.5 -5.4 4.3 -2.1Z" stroke="#00a87f" fill="none" stroke-width="20"></path></g><g transform="translate(479 98)"><path d="M47.3 -14.5C53.2 2.5 44 25.3 29.4 34.4C14.9 43.6 -5.2 39.1 -22.8 27.3C-40.4 15.4 -55.7 -3.8 -51.5 -18.6C-47.3 -33.4 -23.6 -43.8 -1.4 -43.4C20.8 -42.9 41.5 -31.6 47.3 -14.5Z" stroke="#00a87f" fill="none" stroke-width="20"></path></g></g></svg>