<svg id="visual" viewBox="0 0 900 600" width="900" height="600" xmlns="http://www.w3.org/2000/svg" xmlns:xlink="http://www.w3.org/1999/xlink" version="1.1"><rect width="900" height="600" fill="#a2cda0"></rect><g><g transform="translate(443 585)"><path d="M77.1 -28.1C80.9 -13.4 51.9 9 27.4 23.4C2.9 37.9 -17 44.3 -30.6 35.9C-44.2 27.5 -51.5 4.2 -45.4 -13.8C-39.2 -31.8 -19.6 -44.4 8.5 -47.2C36.7 -49.9 73.3 -42.8 77.1 -28.1Z" fill="none" stroke="#00a87f" stroke-width="5"></path></g><g transform="translate(588 312)"><path d="M30.9 -10.2C35 2.7 29.9 18.4 17.2 28.9C4.4 39.4 -15.9 44.6 -23.4 37.8C-30.9 31 -25.6 12.2 -19.6 -3.3C-13.5 -18.9 -6.8 -31.2 3.3 -32.3C13.4 -33.3 26.7 -23.2 30.9 -10.2Z" stroke="#00a87f" fill="none" stroke-width="5"></path></g><g transform="translate(141 364)"><path d="M22.8 -6C24.9 -1.1 18.6 7.9 12.1 11.4C5.6 14.9 -1.1 12.9 -8.1 8.5C-15 4 -22.1 -2.7 -20.8 -6.6C-19.5 -10.4 -9.8 -11.3 0.3 -11.4C10.4 -11.5 20.8 -10.8 22.8 -6Z" stroke="#00a87f" fill="none" stroke-width="5"></path></g><g transform="translate(442 15)"><path d="M37.6 -12.4C43.5 6.2 39.7 27.8 26.1 38.2C12.5 48.6 -10.9 47.9 -26.1 36.7C-41.3 25.4 -48.3 3.7 -42.6 -14.5C-36.9 -32.7 -18.4 -47.4 -1.3 -47C15.8 -46.6 31.6 -31 37.6 -12.4Z" stroke="#00a87f" fill="none" stroke-width="5"></path></g><g transform="translate(117 43)"><path d="M41 -21C46.7 4.3 40.5 25.7 27.5 34.3C14.6 42.8 -5.1 38.4 -15.9 28.9C-26.7 19.3 -28.8 4.7 -24.6 -18.4C-20.5 -41.6 -10.3 -73.1 3.7 -74.3C17.6 -75.5 35.3 -46.3 41 -21Z" stroke="#00a87f" fill="none" stroke-width="5"></path></g><g transform="translate(740 56)"><path d="M36.6 -8.2C40.9 1.3 33.3 18.4 20.8 27.1C8.3 35.9 -9.2 36.3 -17.7 29C-26.3 21.7 -25.9 6.7 -21.4 -3.1C-17 -12.8 -8.5 -17.4 3.8 -18.6C16.2 -19.9 32.3 -17.8 36.6 -8.2Z" stroke="#00a87f" fill="none" stroke-width="5"></path></g><g transform="translate(790 505)"><path d="M82.1 -22.2C92 4 75.9 43.1 50.2 59.4C24.6 75.8 -10.6 69.3 -39.9 49.4C-69.1 29.4 -92.6 -4.2 -85 -27.1C-77.4 -50.1 -38.7 -62.6 -1.3 -62.1C36.1 -61.7 72.1 -48.4 82.1 -22.2Z" stroke="#00a87f" fill="none" stroke-width="5"></path></g></g></svg>